<?xml version="1.0" standalone="no"?>
<!DOCTYPE svg PUBLIC "-//W3C//DTD SVG 20010904//EN"
 "http://www.w3.org/TR/2001/REC-SVG-20010904/DTD/svg10.dtd">
<svg version="1.0" xmlns="http://www.w3.org/2000/svg"
 width="16.000000pt" height="16.000000pt" viewBox="0 0 16.000000 16.000000"
 preserveAspectRatio="xMidYMid meet">
<metadata>
Created by potrace 1.11, written by Peter Selinger 2001-2013
</metadata>
<g transform="translate(0.000000,16.000000) scale(0.006154,-0.006154)"
fill="#000000" stroke="none">
<path d="M299 2522 c-19 -9 -36 -20 -37 -24 -2 -5 -8 -6 -13 -2 -5 3 -12 -2
-15 -10 -3 -9 -13 -16 -21 -16 -8 0 -12 -4 -9 -9 3 -4 -6 -13 -20 -20 -14 -6
-23 -15 -19 -20 3 -5 1 -12 -5 -16 -6 -4 -8 -10 -5 -15 3 -4 -2 -11 -11 -14
-9 -3 -14 -12 -11 -19 2 -6 -2 -24 -10 -39 -8 -17 -9 -28 -3 -28 5 0 10 -5 10
-11 0 -5 -6 -7 -12 -3 -10 6 -10 5 -1 -8 7 -8 10 -17 7 -20 -9 -10 -10 -89 -1
-95 5 -3 3 -9 -4 -14 -12 -7 -12 -9 0 -9 11 0 11 -3 1 -15 -9 -10 -9 -15 -1
-15 13 0 10 -22 -4 -32 -6 -5 -5 -8 3 -8 10 0 10 -5 2 -20 -7 -14 -7 -20 0
-20 12 0 9 -22 -5 -32 -6 -5 -6 -8 2 -8 8 0 9 -9 3 -29 -5 -19 -4 -33 3 -40 8
-8 7 -11 -3 -11 -12 0 -12 -2 -2 -9 8 -4 14 -12 14 -16 0 -4 -6 -12 -14 -16
-11 -7 -11 -9 1 -9 11 0 11 -3 1 -15 -10 -12 -10 -15 0 -15 10 0 10 -3 1 -14
-8 -10 -9 -16 -1 -21 6 -3 8 -11 5 -16 -10 -15 -11 -90 -2 -96 5 -3 3 -9 -4
-14 -12 -7 -12 -9 0 -9 11 0 11 -3 1 -15 -9 -10 -9 -15 -1 -15 13 0 10 -22 -4
-32 -6 -5 -5 -8 3 -8 10 0 10 -5 2 -20 -7 -14 -7 -20 0 -20 12 0 9 -22 -5 -32
-6 -5 -6 -8 2 -8 8 0 9 -9 3 -30 -5 -19 -5 -32 2 -36 6 -4 5 -10 -3 -15 -10
-6 -11 -9 -2 -9 15 0 13 -21 -2 -32 -6 -5 -5 -8 4 -8 11 0 11 -3 1 -15 -10
-12 -10 -15 0 -15 10 0 10 -3 1 -14 -8 -10 -9 -16 -1 -21 6 -3 8 -11 5 -16
-10 -15 -11 -90 -2 -96 5 -3 3 -9 -4 -14 -12 -7 -12 -9 0 -9 11 0 11 -3 1 -15
-9 -10 -9 -15 -1 -15 13 0 10 -22 -4 -32 -6 -5 -5 -8 3 -8 10 0 10 -5 2 -20
-7 -14 -7 -20 0 -20 12 0 9 -22 -5 -32 -6 -5 -6 -8 2 -8 8 0 9 -9 3 -29 -5
-19 -4 -33 3 -40 8 -8 7 -11 -4 -11 -11 0 -11 -2 -1 -9 17 -11 17 -21 0 -32
-11 -7 -11 -9 1 -9 11 0 11 -3 1 -15 -10 -12 -10 -15 0 -15 10 0 10 -3 1 -14
-8 -10 -9 -16 -1 -21 6 -3 8 -11 5 -16 -10 -15 -11 -90 -2 -96 5 -3 3 -9 -4
-14 -12 -7 -12 -9 0 -9 11 0 11 -3 1 -15 -9 -10 -9 -15 -1 -15 13 0 10 -22 -4
-32 -6 -5 -5 -8 3 -8 10 0 10 -5 2 -20 -7 -14 -7 -20 0 -20 12 0 9 -22 -5 -32
-6 -5 -6 -8 2 -8 8 0 9 -9 3 -30 -5 -19 -5 -32 2 -36 6 -4 5 -10 -3 -15 -8 -5
-9 -9 -4 -9 6 0 12 -11 13 -25 3 -35 6 -49 14 -55 3 -3 8 -12 10 -20 2 -8 13
-25 25 -39 12 -14 19 -29 16 -34 -3 -6 -1 -7 5 -3 7 4 12 1 12 -8 0 -9 5 -16
11 -16 5 0 7 6 3 12 -5 9 -3 9 9 -1 9 -7 14 -18 10 -24 -4 -6 0 -8 10 -4 10 4
17 1 17 -5 0 -6 3 -8 7 -5 3 4 12 -1 19 -11 10 -12 13 -13 14 -3 0 10 3 11 13
2 8 -6 17 -8 20 -4 4 3 7 1 7 -5 0 -6 25 -10 70 -9 39 1 72 -2 74 -8 3 -6 5
-5 5 1 1 8 12 9 36 4 19 -4 35 -4 35 0 0 5 14 5 30 0 17 -5 30 -5 30 0 0 5 13
5 30 0 17 -5 30 -5 30 0 0 5 13 5 30 0 17 -5 30 -6 30 -2 0 4 31 6 70 4 46 -2
70 0 70 7 0 6 6 11 14 11 8 0 17 7 20 16 3 8 9 13 14 10 4 -2 8 4 8 15 0 10
-4 19 -8 19 -4 0 -8 5 -8 11 0 5 4 7 10 4 13 -8 1 23 -21 55 -16 24 -65 38
-51 15 3 -5 -2 -4 -11 4 -14 11 -20 11 -32 1 -12 -10 -15 -9 -16 6 0 11 -3 14
-6 6 -2 -6 -9 -9 -14 -6 -6 3 -17 0 -26 -8 -13 -10 -15 -10 -9 0 6 9 1 11 -18
8 -14 -3 -28 0 -32 5 -3 6 -10 6 -17 1 -7 -5 -22 -8 -35 -6 -16 3 -21 0 -16
-8 5 -8 3 -8 -7 -2 -21 13 -120 13 -112 0 4 -7 2 -7 -8 1 -8 6 -33 10 -57 9
-24 -1 -45 1 -48 6 -3 5 -12 4 -19 -2 -9 -8 -23 0 -54 29 -27 25 -37 41 -29
44 7 3 5 6 -7 6 -12 1 -15 4 -10 10 6 6 8 347 5 906 -3 494 -2 899 3 902 4 2
5 8 2 13 -3 5 0 12 6 15 5 4 8 14 5 22 -3 8 -1 11 4 8 6 -3 10 -1 10 5 0 6 14
16 30 21 17 6 30 16 30 22 0 7 5 5 10 -3 9 -13 10 -13 10 0 0 13 1 13 10 0 5
-8 10 -10 10 -5 0 11 142 11 159 1 5 -3 12 0 14 6 4 10 8 9 16 -2 8 -12 11
-12 11 -1 0 11 3 11 15 1 8 -7 15 -9 15 -4 0 12 153 11 162 -1 5 -6 8 -5 8 4
0 11 3 11 15 1 9 -7 15 -8 15 -2 0 12 33 10 42 -3 5 -7 8 -7 8 0 0 11 60 12
78 1 5 -3 13 0 15 6 4 10 8 9 16 -2 8 -12 11 -12 11 -1 0 11 3 11 15 1 8 -7
15 -8 15 -4 0 11 71 11 87 1 6 -4 14 -1 16 5 4 10 8 9 16 -2 8 -12 11 -12 11
-1 0 11 3 11 15 1 8 -7 15 -8 15 -3 0 12 73 11 82 -2 5 -6 8 -5 8 4 0 11 3 11
15 1 9 -7 15 -8 15 -2 0 12 33 10 42 -3 5 -7 8 -7 8 0 0 11 142 11 159 1 5 -3
12 0 14 6 4 10 8 9 16 -2 8 -12 11 -12 11 -1 0 11 3 11 15 1 8 -7 15 -9 15 -4
0 12 153 11 162 -1 5 -6 8 -5 8 4 0 11 3 11 15 1 9 -7 15 -8 15 -2 0 12 33 10
42 -3 5 -7 8 -7 8 0 0 11 60 12 78 1 5 -3 13 0 15 6 4 10 8 9 16 -2 8 -12 11
-12 11 -1 0 11 3 11 15 1 8 -7 15 -8 15 -4 0 11 71 11 87 1 6 -4 14 -1 16 5 4
10 8 9 16 -2 8 -12 11 -12 11 -1 0 11 3 11 15 1 9 -7 15 -8 15 -2 0 12 38 4
59 -12 12 -9 13 -8 6 4 -4 8 3 3 18 -12 14 -16 32 -28 39 -28 10 0 10 -2 -1
-9 -9 -6 -10 -11 -2 -15 6 -4 9 -12 6 -17 -4 -5 0 -9 7 -9 9 0 9 -3 -2 -10 -8
-5 -10 -10 -4 -10 11 0 10 -52 -1 -71 -4 -5 2 -9 12 -9 11 0 14 -3 7 -8 -16
-11 -22 -35 -14 -57 4 -11 3 -28 -2 -37 -5 -10 -5 -18 0 -18 10 0 9 -30 -2
-48 -4 -6 -3 -12 2 -12 10 0 9 -50 -2 -68 -4 -7 -3 -12 3 -12 10 0 7 -31 -4
-50 -3 -6 2 -10 12 -10 11 0 14 -3 7 -8 -16 -11 -22 -35 -14 -57 4 -11 3 -28
-2 -37 -5 -10 -5 -18 0 -18 10 0 9 -30 -2 -48 -4 -6 -3 -12 2 -12 10 0 9 -50
-2 -68 -4 -7 -3 -12 3 -12 10 0 7 -31 -4 -50 -3 -6 2 -10 12 -10 11 0 14 -3 7
-8 -16 -11 -22 -35 -14 -57 4 -11 3 -28 -2 -37 -5 -10 -5 -18 0 -18 10 0 9
-30 -2 -48 -4 -6 -3 -12 2 -12 10 0 9 -50 -2 -68 -4 -7 -3 -12 3 -12 10 0 7
-31 -4 -50 -3 -6 2 -10 12 -10 11 0 14 -3 7 -8 -16 -11 -22 -35 -14 -57 4 -11
3 -28 -2 -37 -5 -10 -5 -18 0 -18 10 0 9 -30 -2 -48 -4 -6 -3 -12 2 -12 10 0
9 -50 -2 -68 -4 -7 -3 -12 3 -12 10 0 7 -31 -4 -50 -3 -6 2 -10 12 -10 11 0
14 -3 7 -8 -16 -11 -22 -35 -14 -57 4 -11 3 -28 -2 -37 -5 -10 -5 -18 0 -18
10 0 9 -30 -2 -48 -4 -6 -3 -12 2 -12 10 0 9 -50 -2 -68 -4 -7 -3 -12 3 -12
10 0 7 -31 -4 -50 -3 -6 2 -10 12 -10 11 0 14 -3 7 -8 -15 -10 -25 -42 -13
-42 6 0 5 -8 -2 -21 -8 -16 -8 -20 1 -14 9 5 9 3 2 -11 -5 -11 -7 -25 -5 -31
3 -7 -3 -13 -12 -13 -9 0 -14 -3 -11 -8 2 -4 -2 -16 -10 -27 -8 -10 -14 -15
-14 -11 0 4 -6 1 -13 -6 -11 -10 -53 -13 -175 -13 -104 0 -162 -3 -162 -10 0
-6 -3 -6 -8 1 -9 14 -45 14 -54 0 -5 -8 -8 -7 -8 1 0 15 -50 13 -50 -2 0 -7
-3 -7 -8 0 -10 15 -52 16 -52 2 0 -8 -3 -9 -8 -1 -9 13 -53 13 -45 0 4 -5 -1
-7 -10 -3 -11 4 -17 1 -17 -7 0 -8 -6 -16 -13 -19 -7 -3 -14 -21 -15 -42 -2
-28 0 -35 10 -29 10 6 11 5 1 -7 -14 -17 0 -39 24 -39 7 0 13 -4 13 -10 0 -5
5 -10 11 -10 5 0 7 6 4 13 -4 6 1 3 9 -7 9 -11 16 -16 16 -10 0 9 257 10 293
0 9 -2 17 0 17 4 0 5 14 5 31 0 26 -8 30 -7 25 7 -5 12 -3 13 6 6 18 -14 58
-23 58 -13 0 5 14 5 30 0 25 -7 30 -6 30 8 0 10 3 13 8 7 9 -14 52 -17 52 -3
0 5 7 8 15 4 8 -3 15 -1 15 3 0 5 7 12 16 15 15 6 15 4 3 -10 -13 -16 -12 -16
8 -4 12 8 19 18 17 22 -3 4 2 8 11 8 9 0 30 15 48 32 17 18 35 32 39 31 4 -2
5 6 3 17 -2 13 2 20 11 20 12 0 19 26 15 52 0 5 3 8 9 8 6 0 10 334 10 963 0
803 -3 967 -14 982 -8 11 -12 25 -9 32 3 7 0 13 -6 13 -6 0 -11 7 -11 15 0 9
-7 18 -15 21 -8 4 -12 10 -9 15 3 5 -1 9 -8 9 -7 0 -20 13 -29 28 -14 25 -28
31 -81 35 -12 1 -14 5 -7 13 7 9 -224 12 -969 12 -882 0 -982 -2 -1013 -16z
m606 -2172 c3 -5 1 -10 -4 -10 -6 0 -11 5 -11 10 0 6 2 10 4 10 3 0 8 -4 11
-10z"/>
<path d="M1223 2084 c6 -11 -6 -13 -90 -17 -17 -1 -31 -6 -30 -11 1 -5 -4 -11
-12 -14 -10 -3 -11 0 -5 9 6 11 3 10 -11 -1 -10 -8 -21 -14 -24 -14 -3 1 -5
-1 -4 -5 1 -3 -10 -7 -24 -8 -14 0 -29 -6 -33 -13 -4 -6 -10 -11 -14 -11 -19
3 -27 0 -22 -8 4 -5 -5 -8 -18 -7 -18 2 -22 -1 -18 -16 3 -14 0 -17 -12 -12
-9 3 -16 1 -16 -5 0 -6 -11 -16 -25 -23 -13 -6 -22 -15 -19 -19 3 -5 -2 -9
-11 -9 -9 0 -14 -4 -11 -9 3 -5 -5 -17 -19 -27 -13 -10 -22 -21 -19 -25 2 -4
-3 -9 -11 -13 -8 -3 -15 -12 -15 -21 0 -8 -5 -15 -10 -15 -6 0 -9 -3 -9 -7 3
-20 -2 -34 -11 -28 -5 3 -7 0 -4 -8 3 -8 0 -18 -5 -22 -6 -3 -9 -11 -6 -16 4
-5 1 -9 -5 -9 -6 0 -10 -10 -8 -23 1 -13 -5 -35 -14 -49 -9 -14 -14 -29 -11
-32 13 -12 14 -48 1 -40 -7 5 -8 3 -2 -7 5 -8 9 -21 9 -29 0 -13 26 -15 170
-15 163 0 170 1 170 20 0 11 5 23 11 27 6 4 10 17 9 30 -1 13 3 28 9 35 29 33
36 43 36 53 0 6 4 9 9 6 5 -3 12 1 15 10 3 8 19 20 36 25 18 7 27 15 23 22 -4
7 2 5 12 -3 11 -9 16 -10 11 -2 -5 8 -1 12 11 13 41 3 61 6 70 12 5 3 15 2 23
-3 9 -6 19 -3 28 8 7 9 11 12 8 6 -3 -7 2 -18 11 -25 14 -12 16 -12 9 0 -7 10
-3 12 15 6 13 -4 30 -13 38 -19 11 -8 13 -8 7 1 -5 9 -2 11 8 7 9 -3 16 -10
16 -16 0 -5 4 -7 9 -4 5 3 12 -1 15 -10 3 -8 10 -12 16 -9 5 3 10 -1 10 -10 0
-9 5 -13 10 -10 6 3 10 -1 10 -9 0 -9 4 -16 8 -16 13 0 34 -78 26 -92 -4 -7
-3 -8 4 -4 7 4 12 2 12 -3 0 -6 -4 -11 -9 -11 -5 0 -8 -12 -8 -26 0 -15 -6
-30 -13 -34 -7 -4 -10 -15 -7 -24 6 -15 -4 -21 -26 -17 -5 1 -6 -3 -2 -9 3 -5
1 -10 -5 -10 -6 0 -9 -4 -6 -8 3 -5 -4 -16 -15 -25 -10 -9 -19 -15 -19 -12 0
2 -11 -7 -25 -21 -14 -14 -25 -29 -25 -34 0 -6 -3 -9 -7 -8 -12 4 -53 -35 -47
-44 3 -4 -2 -5 -10 -2 -11 4 -16 0 -16 -11 0 -9 -4 -13 -10 -10 -5 3 -10 1
-10 -5 0 -6 -5 -8 -12 -4 -6 4 -8 3 -5 -3 3 -5 -9 -26 -28 -46 -19 -21 -32
-37 -28 -37 4 0 -3 -9 -15 -20 -12 -12 -22 -27 -22 -35 0 -8 -4 -15 -10 -15
-5 0 -10 -5 -10 -12 0 -6 -8 -20 -17 -31 -13 -15 -14 -18 -3 -12 9 5 7 -1 -5
-15 -13 -15 -15 -21 -5 -16 12 6 12 5 -1 -6 -9 -7 -14 -19 -12 -25 3 -7 -1
-13 -7 -13 -9 0 -9 -5 1 -17 10 -11 10 -14 2 -9 -9 5 -13 -1 -13 -18 0 -14 -6
-26 -12 -26 -10 0 -9 -3 1 -9 9 -6 10 -11 2 -15 -11 -7 -12 -24 -12 -135 0
-47 5 -69 17 -80 9 -9 14 -10 10 -3 -4 6 -2 12 3 12 6 0 11 -6 11 -12 0 -9 3
-9 8 -3 4 6 30 10 57 10 28 -1 56 4 64 9 11 8 13 8 8 -1 -4 -6 -3 -14 2 -17 5
-4 12 -2 16 3 3 6 13 7 22 4 12 -5 14 -3 8 8 -7 10 -2 9 17 -3 18 -12 29 -14
33 -7 4 6 13 8 20 5 8 -3 16 0 19 7 3 9 5 9 5 0 1 -16 27 -17 37 -1 5 7 3 8
-7 3 -12 -8 -12 -6 -1 8 8 9 11 21 7 27 -3 5 0 10 7 10 10 0 10 2 -1 9 -8 5
-9 11 -3 15 5 3 8 16 8 28 -1 13 2 31 6 41 6 11 5 17 -4 17 -10 0 -10 2 1 9 8
5 10 14 6 21 -6 9 -4 11 5 5 10 -6 12 -1 8 19 -4 18 0 31 12 39 9 7 16 20 14
30 -1 9 1 15 5 13 4 -3 16 9 26 25 11 16 26 29 32 29 7 0 12 3 12 8 -3 19 2
33 11 27 6 -3 10 -1 10 5 0 6 5 8 10 5 9 -6 15 8 11 29 -1 5 5 6 13 3 9 -4 17
1 21 13 3 11 10 19 14 17 5 -1 30 21 56 48 27 28 52 49 56 48 5 -2 6 3 3 11
-3 8 0 17 7 22 8 5 10 3 4 -7 -8 -12 -6 -12 8 -1 9 8 16 17 15 20 -2 18 4 31
22 52 11 13 20 34 20 47 0 14 4 21 10 18 6 -4 10 5 10 20 0 14 4 24 8 21 5 -3
8 5 8 17 -1 13 4 21 12 19 8 -1 11 2 7 8 -3 6 -12 7 -18 3 -9 -5 -9 -3 0 8 14
17 15 157 1 183 -7 13 -7 16 1 12 6 -4 11 -2 11 3 0 6 -6 11 -14 11 -8 0 -12
9 -11 25 2 14 -1 25 -7 25 -6 0 -8 7 -4 15 3 8 0 15 -6 15 -6 0 -9 3 -5 6 3 4
-1 13 -9 21 -8 9 -12 23 -9 31 3 9 3 13 -1 9 -4 -4 -20 14 -36 40 -15 27 -28
44 -28 40 0 -4 -6 -2 -14 5 -8 7 -12 16 -10 19 2 3 -8 11 -21 17 -14 7 -25 16
-25 21 0 5 -13 14 -30 21 -16 7 -27 16 -25 21 3 4 -3 6 -15 4 -11 -2 -19 1
-17 8 1 6 -2 11 -8 12 -5 0 -16 4 -24 9 -10 7 -12 5 -7 -5 4 -8 0 -5 -8 5 -9
11 -16 17 -16 13 0 -4 -16 -1 -35 8 -22 8 -33 10 -29 3 5 -7 3 -8 -7 -2 -8 4
-23 10 -34 11 -10 2 -23 9 -27 16 -7 10 -12 4 -10 -14 1 -3 -5 -6 -13 -6 -8 0
-12 4 -10 8 3 4 -2 10 -11 13 -10 4 -13 2 -8 -7 5 -8 2 -7 -9 2 -13 10 -17 10
-17 1 0 -10 -3 -10 -15 0 -12 10 -19 10 -27 2 -7 -7 -17 -8 -29 -2 -12 7 -20
6 -24 0 -5 -8 -12 -7 -23 2 -9 7 -13 8 -9 2z m-523 -474 c0 -5 -5 -10 -11 -10
-5 0 -7 5 -4 10 3 6 8 10 11 10 2 0 4 -4 4 -10z"/>
<path d="M1204 496 c-10 -6 -22 -15 -26 -21 -5 -6 -8 -4 -8 4 0 8 -12 1 -30
-17 -16 -18 -30 -28 -30 -24 0 13 -44 -63 -44 -78 -1 -8 -7 -14 -15 -12 -12 3
-12 0 -1 -12 9 -12 9 -16 1 -16 -8 0 -9 -5 -3 -16 5 -9 6 -33 2 -55 -5 -25 -3
-37 3 -36 11 2 13 -5 16 -42 0 -11 9 -22 19 -25 11 -4 25 -17 32 -31 7 -13 17
-22 22 -19 4 3 8 0 8 -6 0 -6 5 -8 10 -5 6 3 10 2 10 -3 0 -6 7 -13 16 -16 10
-4 13 -2 8 7 -5 9 -4 9 7 0 15 -15 149 -18 149 -4 0 5 11 8 25 7 13 -2 22 0
20 4 -6 10 61 70 69 63 5 -6 8 5 5 23 0 4 5 10 12 14 6 5 13 21 14 37 2 15 4
29 5 31 7 7 5 29 -4 41 -9 12 -8 13 3 6 11 -6 13 -4 8 9 -4 10 -10 30 -13 44
-4 15 -13 33 -22 40 -9 6 -12 12 -7 12 5 0 0 7 -11 16 -10 8 -12 12 -4 8 9 -4
7 2 -5 13 -11 11 -23 19 -27 16 -5 -2 -8 0 -8 5 0 4 -16 14 -35 22 -19 8 -31
18 -28 24 4 6 -1 5 -10 -3 -13 -10 -17 -10 -17 -1 0 10 -3 10 -15 0 -10 -9
-15 -9 -15 -1 0 6 -5 11 -11 11 -5 0 -7 -5 -3 -12 5 -7 3 -8 -7 -3 -20 13 -42
13 -65 1z"/>
<path d="M2210 379 c0 -5 5 -7 10 -4 6 3 10 8 10 11 0 2 -4 4 -10 4 -5 0 -10
-5 -10 -11z"/>
<path d="M1419 103 c-13 -16 -12 -17 4 -4 16 13 21 21 13 21 -2 0 -10 -8 -17
-17z"/>
</g>
</svg>
